<svg width="24" height="23" viewBox="0 0 24 23" fill="none" xmlns="http://www.w3.org/2000/svg">
<g clip-path="url(#clip0_402_3838)">
<path d="M18.157 10.6679C18.1874 10.406 18.1394 10.1409 18.0192 9.90627C17.899 9.67161 17.7119 9.47786 17.4815 9.34953C17.2512 9.22119 16.988 9.16403 16.7252 9.18526C16.4624 9.20649 16.2118 9.30517 16.005 9.46881L15.1761 10.1252L13.1771 7.60088C12.1882 6.35489 10.7453 5.55207 9.1652 5.36856C7.58506 5.18505 5.99665 5.63584 4.74847 6.62202L1.09001 9.51916C0.951393 9.62892 0.862062 9.78926 0.841666 9.96489C0.821269 10.1405 0.871477 10.3171 0.981244 10.4557C1.09101 10.5943 1.25134 10.6836 1.42698 10.704C1.60261 10.7244 1.77915 10.6742 1.91776 10.5644C2.74983 9.90686 3.8088 9.60627 4.86226 9.72861C5.91572 9.85095 6.87762 10.3862 7.53685 11.217L9.94975 14.264L9.12084 14.9204C8.91417 15.0841 8.76069 15.3055 8.67979 15.5564C8.5989 15.8074 8.59422 16.0767 8.66635 16.3303C8.73849 16.5839 8.8842 16.8104 9.08505 16.9812C9.28591 17.152 9.53291 17.2594 9.79481 17.2899L15.3006 17.9293C15.8274 17.9904 16.3569 17.8398 16.7726 17.5105C17.1884 17.1813 17.4564 16.7004 17.5176 16.1736L18.157 10.6679Z" fill="white"/>
</g>
<defs>
<clipPath id="clip0_402_3838">
<rect width="16" height="16" fill="white" transform="translate(13.1113) rotate(51.6243)"/>
</clipPath>
</defs>
</svg>
