<svg width="111" height="62" viewBox="0 0 111 62" fill="none" xmlns="http://www.w3.org/2000/svg">
<path d="M9.59943 31L2.46343 13.656H8.70343L14.3994 28.152H11.2634L17.2474 13.656H23.0394L15.8714 31H9.59943ZM32.8464 31.288C30.9478 31.288 29.2624 30.904 27.7904 30.136C26.3184 29.368 25.1558 28.312 24.3024 26.968C23.4704 25.6027 23.0544 24.0453 23.0544 22.296C23.0544 20.5467 23.4704 19 24.3024 17.656C25.1558 16.312 26.3184 15.2667 27.7904 14.52C29.2624 13.752 30.9478 13.368 32.8464 13.368C34.7451 13.368 36.4304 13.752 37.9024 14.52C39.3958 15.2667 40.5584 16.312 41.3904 17.656C42.2224 19 42.6384 20.5467 42.6384 22.296C42.6384 24.0453 42.2224 25.6027 41.3904 26.968C40.5584 28.312 39.3958 29.368 37.9024 30.136C36.4304 30.904 34.7451 31.288 32.8464 31.288ZM32.8464 26.456C33.5504 26.456 34.1691 26.296 34.7024 25.976C35.2571 25.656 35.6944 25.1867 36.0144 24.568C36.3344 23.928 36.4944 23.1707 36.4944 22.296C36.4944 21.4213 36.3344 20.6853 36.0144 20.088C35.6944 19.4693 35.2571 19 34.7024 18.68C34.1691 18.36 33.5504 18.2 32.8464 18.2C32.1638 18.2 31.5451 18.36 30.9904 18.68C30.4571 19 30.0198 19.4693 29.6784 20.088C29.3584 20.6853 29.1984 21.4213 29.1984 22.296C29.1984 23.1707 29.3584 23.928 29.6784 24.568C30.0198 25.1867 30.4571 25.656 30.9904 25.976C31.5451 26.296 32.1638 26.456 32.8464 26.456ZM52.7509 31.288C51.3429 31.288 50.0736 31.0107 48.9429 30.456C47.8336 29.9013 46.9589 29.0373 46.3189 27.864C45.7003 26.6693 45.3909 25.1653 45.3909 23.352V13.656H51.4709V22.36C51.4709 23.704 51.7163 24.664 52.2069 25.24C52.7189 25.816 53.4336 26.104 54.3509 26.104C54.9483 26.104 55.4923 25.9653 55.9829 25.688C56.4736 25.4107 56.8683 24.9733 57.1669 24.376C57.4656 23.7573 57.6149 22.968 57.6149 22.008V13.656H63.6949V31H57.9029V26.104L59.0229 27.48C58.4256 28.76 57.5616 29.72 56.4309 30.36C55.3003 30.9787 54.0736 31.288 52.7509 31.288ZM76.4752 31.288C74.5552 31.288 72.8378 30.904 71.3232 30.136C69.8298 29.368 68.6565 28.312 67.8032 26.968C66.9498 25.6027 66.5232 24.0453 66.5232 22.296C66.5232 20.5467 66.9498 19 67.8032 17.656C68.6565 16.312 69.8298 15.2667 71.3232 14.52C72.8378 13.752 74.5552 13.368 76.4752 13.368C78.4378 13.368 80.1338 13.784 81.5632 14.616C82.9925 15.448 84.0058 16.6213 84.6032 18.136L79.8992 20.536C79.4938 19.7253 78.9925 19.1387 78.3952 18.776C77.7978 18.392 77.1472 18.2 76.4432 18.2C75.7392 18.2 75.0992 18.36 74.5232 18.68C73.9472 19 73.4885 19.4693 73.1472 20.088C72.8272 20.6853 72.6672 21.4213 72.6672 22.296C72.6672 23.192 72.8272 23.9493 73.1472 24.568C73.4885 25.1867 73.9472 25.656 74.5232 25.976C75.0992 26.296 75.7392 26.456 76.4432 26.456C77.1472 26.456 77.7978 26.2747 78.3952 25.912C78.9925 25.528 79.4938 24.9307 79.8992 24.12L84.6032 26.52C84.0058 28.0347 82.9925 29.208 81.5632 30.04C80.1338 30.872 78.4378 31.288 76.4752 31.288ZM98.1259 13.368C99.4699 13.368 100.686 13.6453 101.774 14.2C102.862 14.7333 103.715 15.5653 104.334 16.696C104.974 17.8267 105.294 19.288 105.294 21.08V31H99.2139V22.072C99.2139 20.8347 98.9579 19.9387 98.4459 19.384C97.9553 18.808 97.2619 18.52 96.3659 18.52C95.7259 18.52 95.1393 18.6693 94.6059 18.968C94.0726 19.2453 93.6566 19.6827 93.3579 20.28C93.0593 20.8773 92.9099 21.656 92.9099 22.616V31H86.8299V7.256H92.9099V18.584L91.5019 17.144C92.1633 15.8853 93.0699 14.9467 94.2219 14.328C95.3739 13.688 96.6753 13.368 98.1259 13.368Z" fill="#F24343"/>
<path d="M0.36875 51.3588C0.502758 48.0667 3.1904 44.9315 13.3209 42.6756C23.4514 40.4197 37.1796 39.1866 51.603 39.2371C66.0265 39.2875 80.0148 40.6175 90.6107 42.9459C101.207 45.2743 108.438 48.7265 109.241 52.0219C108.482 48.9074 100.524 47.0532 90.5095 44.8526C80.4954 42.6521 65.1527 40.8279 51.5211 40.7803C37.8641 41.5574 24.8199 41.7297 15.2456 43.8617C5.67125 45.9938 0.4954 48.2474 0.36875 51.3588Z" fill="#F24343"/>
<path d="M1.23789 55.4106C1.3719 52.1184 4.05954 48.9832 14.1901 46.7274C24.3206 44.4715 38.0487 43.2384 52.4722 43.2888C66.8956 43.3393 80.884 44.6693 91.4798 46.9976C102.076 49.326 109.307 52.7782 110.11 56.0736C109.352 52.9591 101.393 51.1049 91.3786 48.9044C81.3645 46.7039 66.0218 44.8797 52.3903 44.832C38.7332 45.6092 25.689 45.7815 16.1147 47.9135C6.54039 50.0455 1.36454 52.2992 1.23789 55.4106Z" fill="#F24343"/>
</svg>
