<svg width="18" height="18" viewBox="0 0 18 18" fill="none" xmlns="http://www.w3.org/2000/svg">
<g clip-path="url(#clip0_23_319)">
<path d="M7.00493 8.09473C6.29132 7.19375 5.93797 6.05972 6.01351 4.91285C6.08904 3.76598 6.58807 2.68809 7.41368 1.88848L7.88843 1.41298C8.6881 0.587677 9.76589 0.0889237 10.9126 0.0135305C12.0593 -0.0618627 13.1931 0.291483 14.0939 1.00498C14.5758 1.40454 14.9681 1.90107 15.2454 2.46227C15.5227 3.02346 15.6788 3.63675 15.7034 4.26223C15.7298 4.88502 15.6267 5.5065 15.4007 6.08742C15.1746 6.66834 14.8306 7.19605 14.3902 7.63723L13.6402 8.38723C12.7949 9.23068 11.6498 9.70479 10.4557 9.70573C10.3912 9.70573 10.3267 9.70423 10.2622 9.70123C9.63697 9.67677 9.02389 9.5211 8.46273 9.24434C7.90158 8.96757 7.4049 8.5759 7.00493 8.09473ZM14.0677 12C13.5512 11.9988 13.0396 12.0999 12.5624 12.2975C12.0852 12.4951 11.6519 12.7852 11.2874 13.1512C10.2285 14.2163 8.96874 15.0606 7.58119 15.6355C6.19363 16.2103 4.70583 16.5041 3.20393 16.5H2.34143C2.17501 16.5002 2.01226 16.4511 1.87379 16.3588C1.73533 16.2664 1.62737 16.1351 1.5636 15.9814C1.49984 15.8277 1.48312 15.6585 1.51558 15.4953C1.54804 15.332 1.62821 15.1821 1.74594 15.0645L2.27094 14.5395C3.57314 14.4521 4.79922 13.8945 5.72093 12.9705L8.01143 10.68C7.1796 10.3104 6.44276 9.75643 5.85669 9.05998C5.52914 8.66726 5.25617 8.23207 5.04519 7.76623L2.77494 10.0342C1.85064 10.9558 1.29299 12.1819 1.20594 13.4842L0.680935 14.0092C0.355022 14.3372 0.133529 14.7543 0.0443969 15.208C-0.0447352 15.6617 0.00248552 16.1316 0.180103 16.5585C0.35772 16.9853 0.657777 17.35 1.04243 17.6066C1.42707 17.8631 1.87908 18 2.34143 18H3.20393C4.90281 18.0046 6.58573 17.6722 8.15529 17.0221C9.72486 16.372 11.1499 15.417 12.3479 14.2125C12.688 13.8724 13.1213 13.6408 13.5931 13.547C14.0648 13.4531 14.5537 13.5012 14.9981 13.6852C15.4425 13.8692 15.8223 14.1808 16.0896 14.5806C16.357 14.9804 16.4997 15.4505 16.4999 15.9315V17.25C16.4999 17.4489 16.579 17.6397 16.7196 17.7803C16.8603 17.921 17.051 18 17.2499 18C17.4488 18 17.6396 17.921 17.7803 17.7803C17.9209 17.6397 17.9999 17.4489 17.9999 17.25V15.9315C17.9985 14.8891 17.5838 13.8898 16.8466 13.1528C16.1095 12.4157 15.1101 12.0012 14.0677 12Z" fill="white"/>
</g>
<defs>
<clipPath id="clip0_23_319">
<rect width="18" height="18" fill="white"/>
</clipPath>
</defs>
</svg>
