<svg width="211" height="59" viewBox="0 0 211 59" fill="none" xmlns="http://www.w3.org/2000/svg">
<path d="M4.79575 31V13.656H10.5878V18.712L9.72375 17.272C10.2358 15.9707 11.0678 15 12.2198 14.36C13.3718 13.6987 14.7691 13.368 16.4118 13.368V18.84C16.1344 18.7973 15.8891 18.776 15.6758 18.776C15.4838 18.7547 15.2704 18.744 15.0358 18.744C13.7984 18.744 12.7958 19.0853 12.0278 19.768C11.2598 20.4293 10.8758 21.5173 10.8758 23.032V31H4.79575ZM18.9208 31V13.656H25.0008V31H18.9208ZM21.9608 11.736C20.8514 11.736 19.9554 11.4267 19.2728 10.808C18.5901 10.1893 18.2488 9.42133 18.2488 8.504C18.2488 7.58667 18.5901 6.81867 19.2728 6.2C19.9554 5.58133 20.8514 5.272 21.9608 5.272C23.0701 5.272 23.9661 5.57067 24.6488 6.168C25.3314 6.744 25.6728 7.49067 25.6728 8.408C25.6728 9.368 25.3314 10.168 24.6488 10.808C23.9874 11.4267 23.0914 11.736 21.9608 11.736ZM37.432 37.496C35.768 37.496 34.1787 37.304 32.664 36.92C31.1707 36.536 29.8907 35.9707 28.824 35.224L31.032 30.968C31.7573 31.544 32.6533 31.992 33.72 32.312C34.808 32.6533 35.864 32.824 36.888 32.824C38.5307 32.824 39.7147 32.4613 40.44 31.736C41.1653 31.032 41.528 29.9973 41.528 28.632V26.584L41.848 21.72L41.816 16.824V13.656H47.608V27.832C47.608 31.1173 46.7227 33.5493 44.952 35.128C43.1813 36.7067 40.6747 37.496 37.432 37.496ZM36.376 30.104C34.84 30.104 33.4213 29.7627 32.12 29.08C30.84 28.376 29.8053 27.4053 29.016 26.168C28.248 24.9093 27.864 23.4267 27.864 21.72C27.864 20.0133 28.248 18.5413 29.016 17.304C29.8053 16.0453 30.84 15.0747 32.12 14.392C33.4213 13.7093 34.84 13.368 36.376 13.368C37.848 13.368 39.1067 13.6667 40.152 14.264C41.1973 14.84 41.9867 15.7467 42.52 16.984C43.0747 18.2213 43.352 19.8 43.352 21.72C43.352 23.64 43.0747 25.2187 42.52 26.456C41.9867 27.6933 41.1973 28.6107 40.152 29.208C39.1067 29.8053 37.848 30.104 36.376 30.104ZM37.816 25.272C38.5413 25.272 39.1813 25.1227 39.736 24.824C40.312 24.5253 40.76 24.1093 41.08 23.576C41.4213 23.0427 41.592 22.424 41.592 21.72C41.592 21.016 41.4213 20.3973 41.08 19.864C40.76 19.3307 40.312 18.9253 39.736 18.648C39.1813 18.3493 38.5413 18.2 37.816 18.2C37.0907 18.2 36.44 18.3493 35.864 18.648C35.288 18.9253 34.8293 19.3307 34.488 19.864C34.168 20.3973 34.008 21.016 34.008 21.72C34.008 22.424 34.168 23.0427 34.488 23.576C34.8293 24.1093 35.288 24.5253 35.864 24.824C36.44 25.1227 37.0907 25.272 37.816 25.272ZM62.8105 13.368C64.1545 13.368 65.3705 13.6453 66.4585 14.2C67.5465 14.7333 68.3998 15.5653 69.0185 16.696C69.6585 17.8267 69.9785 19.288 69.9785 21.08V31H63.8985V22.072C63.8985 20.8347 63.6425 19.9387 63.1305 19.384C62.6398 18.808 61.9465 18.52 61.0505 18.52C60.4105 18.52 59.8238 18.6693 59.2905 18.968C58.7572 19.2453 58.3412 19.6827 58.0425 20.28C57.7438 20.8773 57.5945 21.656 57.5945 22.616V31H51.5145V7.256H57.5945V18.584L56.1865 17.144C56.8478 15.8853 57.7545 14.9467 58.9065 14.328C60.0585 13.688 61.3598 13.368 62.8105 13.368ZM81.5398 31.288C79.3211 31.288 77.5931 30.744 76.3558 29.656C75.1184 28.5467 74.4998 26.8827 74.4998 24.664V9.784H80.5798V24.6C80.5798 25.2187 80.7504 25.7093 81.0918 26.072C81.4331 26.4133 81.8704 26.584 82.4038 26.584C83.1291 26.584 83.7478 26.4027 84.2598 26.04L85.7638 30.296C85.2518 30.6373 84.6224 30.8827 83.8758 31.032C83.1291 31.2027 82.3504 31.288 81.5398 31.288ZM71.9718 18.84V14.296H84.5478V18.84H71.9718ZM106.285 31.288C104.365 31.288 102.647 30.904 101.133 30.136C99.6394 29.368 98.4661 28.312 97.6128 26.968C96.7594 25.6027 96.3328 24.0453 96.3328 22.296C96.3328 20.5467 96.7594 19 97.6128 17.656C98.4661 16.312 99.6394 15.2667 101.133 14.52C102.647 13.752 104.365 13.368 106.285 13.368C108.247 13.368 109.943 13.784 111.373 14.616C112.802 15.448 113.815 16.6213 114.413 18.136L109.709 20.536C109.303 19.7253 108.802 19.1387 108.205 18.776C107.607 18.392 106.957 18.2 106.253 18.2C105.549 18.2 104.909 18.36 104.333 18.68C103.757 19 103.298 19.4693 102.957 20.088C102.637 20.6853 102.477 21.4213 102.477 22.296C102.477 23.192 102.637 23.9493 102.957 24.568C103.298 25.1867 103.757 25.656 104.333 25.976C104.909 26.296 105.549 26.456 106.253 26.456C106.957 26.456 107.607 26.2747 108.205 25.912C108.802 25.528 109.303 24.9307 109.709 24.12L114.413 26.52C113.815 28.0347 112.802 29.208 111.373 30.04C109.943 30.872 108.247 31.288 106.285 31.288ZM127.936 13.368C129.28 13.368 130.496 13.6453 131.583 14.2C132.672 14.7333 133.525 15.5653 134.144 16.696C134.784 17.8267 135.104 19.288 135.104 21.08V31H129.024V22.072C129.024 20.8347 128.768 19.9387 128.256 19.384C127.765 18.808 127.072 18.52 126.176 18.52C125.536 18.52 124.949 18.6693 124.416 18.968C123.882 19.2453 123.466 19.6827 123.168 20.28C122.869 20.8773 122.72 21.656 122.72 22.616V31H116.64V7.256H122.72V18.584L121.312 17.144C121.973 15.8853 122.88 14.9467 124.032 14.328C125.184 13.688 126.485 13.368 127.936 13.368ZM147.844 31.288C145.945 31.288 144.26 30.904 142.788 30.136C141.316 29.368 140.153 28.312 139.299 26.968C138.468 25.6027 138.052 24.0453 138.052 22.296C138.052 20.5467 138.468 19 139.299 17.656C140.153 16.312 141.316 15.2667 142.788 14.52C144.26 13.752 145.945 13.368 147.844 13.368C149.742 13.368 151.428 13.752 152.9 14.52C154.393 15.2667 155.556 16.312 156.388 17.656C157.22 19 157.636 20.5467 157.636 22.296C157.636 24.0453 157.22 25.6027 156.388 26.968C155.556 28.312 154.393 29.368 152.9 30.136C151.428 30.904 149.742 31.288 147.844 31.288ZM147.844 26.456C148.548 26.456 149.166 26.296 149.7 25.976C150.254 25.656 150.692 25.1867 151.012 24.568C151.332 23.928 151.492 23.1707 151.492 22.296C151.492 21.4213 151.332 20.6853 151.012 20.088C150.692 19.4693 150.254 19 149.7 18.68C149.166 18.36 148.548 18.2 147.844 18.2C147.161 18.2 146.542 18.36 145.988 18.68C145.454 19 145.017 19.4693 144.676 20.088C144.356 20.6853 144.196 21.4213 144.196 22.296C144.196 23.1707 144.356 23.928 144.676 24.568C145.017 25.1867 145.454 25.656 145.988 25.976C146.542 26.296 147.161 26.456 147.844 26.456ZM160.452 31V13.656H166.532V31H160.452ZM163.492 11.736C162.383 11.736 161.487 11.4267 160.804 10.808C160.121 10.1893 159.78 9.42133 159.78 8.504C159.78 7.58667 160.121 6.81867 160.804 6.2C161.487 5.58133 162.383 5.272 163.492 5.272C164.601 5.272 165.497 5.57067 166.18 6.168C166.863 6.744 167.204 7.49067 167.204 8.408C167.204 9.368 166.863 10.168 166.18 10.808C165.519 11.4267 164.623 11.736 163.492 11.736ZM179.347 31.288C177.427 31.288 175.71 30.904 174.195 30.136C172.702 29.368 171.529 28.312 170.675 26.968C169.822 25.6027 169.395 24.0453 169.395 22.296C169.395 20.5467 169.822 19 170.675 17.656C171.529 16.312 172.702 15.2667 174.195 14.52C175.71 13.752 177.427 13.368 179.347 13.368C181.31 13.368 183.006 13.784 184.435 14.616C185.865 15.448 186.878 16.6213 187.475 18.136L182.771 20.536C182.366 19.7253 181.865 19.1387 181.267 18.776C180.67 18.392 180.019 18.2 179.315 18.2C178.611 18.2 177.971 18.36 177.395 18.68C176.819 19 176.361 19.4693 176.019 20.088C175.699 20.6853 175.539 21.4213 175.539 22.296C175.539 23.192 175.699 23.9493 176.019 24.568C176.361 25.1867 176.819 25.656 177.395 25.976C177.971 26.296 178.611 26.456 179.315 26.456C180.019 26.456 180.67 26.2747 181.267 25.912C181.865 25.528 182.366 24.9307 182.771 24.12L187.475 26.52C186.878 28.0347 185.865 29.208 184.435 30.04C183.006 30.872 181.31 31.288 179.347 31.288ZM198.665 31.288C196.617 31.288 194.825 30.904 193.289 30.136C191.774 29.3467 190.59 28.28 189.737 26.936C188.905 25.5707 188.489 24.024 188.489 22.296C188.489 20.568 188.894 19.032 189.705 17.688C190.537 16.3227 191.678 15.2667 193.129 14.52C194.58 13.752 196.212 13.368 198.025 13.368C199.732 13.368 201.289 13.72 202.697 14.424C204.105 15.1067 205.225 16.12 206.057 17.464C206.889 18.808 207.305 20.44 207.305 22.36C207.305 22.5733 207.294 22.8187 207.273 23.096C207.252 23.3733 207.23 23.6293 207.209 23.864H193.481V20.664H203.977L201.673 21.56C201.694 20.7707 201.545 20.088 201.225 19.512C200.926 18.936 200.5 18.488 199.945 18.168C199.412 17.848 198.782 17.688 198.057 17.688C197.332 17.688 196.692 17.848 196.137 18.168C195.604 18.488 195.188 18.9467 194.889 19.544C194.59 20.12 194.441 20.8027 194.441 21.592V22.52C194.441 23.3733 194.612 24.1093 194.953 24.728C195.316 25.3467 195.828 25.8267 196.489 26.168C197.15 26.488 197.94 26.648 198.857 26.648C199.71 26.648 200.436 26.5307 201.033 26.296C201.652 26.04 202.26 25.656 202.857 25.144L206.057 28.472C205.225 29.3893 204.201 30.0933 202.985 30.584C201.769 31.0533 200.329 31.288 198.665 31.288Z" fill="#F24343"/>
<path d="M1.28905 54.2751C1.21388 50.9805 5.86493 47.7073 24.3324 44.9175C42.7998 42.1278 68.0041 40.1688 94.6169 39.4547C121.23 38.7405 147.165 39.3271 166.94 41.0906C186.715 42.854 200.393 45.918 202.197 49.1662C200.492 46.0964 185.629 44.6666 166.94 43C148.251 41.3334 119.768 40.325 94.6169 41C69.499 42.5 45.4525 43.3635 27.999 46C10.5455 48.6365 1.21801 51.1614 1.28905 54.2751Z" fill="#F24343"/>
<path d="M3.28905 58.2751C3.21388 54.9805 7.86493 51.7073 26.3324 48.9175C44.7998 46.1278 70.0041 44.1688 96.6169 43.4547C123.23 42.7405 149.165 43.3271 168.94 45.0906C188.715 46.854 202.393 49.918 204.197 53.1662C202.492 50.0964 187.629 48.6666 168.94 47C150.251 45.3334 121.768 44.325 96.6169 45C71.499 46.5 47.4525 47.3635 29.999 50C12.5455 52.6365 3.21801 55.1614 3.28905 58.2751Z" fill="#F24343"/>
</svg>
